<svg width="24" height="24" viewBox="0 0 24 24" fill="none" xmlns="http://www.w3.org/2000/svg">
<g id="Frame 869" clip-path="url(#clip0_590_5364)">
<circle id="Ellipse 126" cx="12" cy="12" r="12" fill="#FDF6C6" style="fill:#FDF6C6;fill:color(display-p3 0.9922 0.9647 0.7765);fill-opacity:1;"/>
<circle id="Ellipse 125" cx="12" cy="12" r="10" fill="#F9DB4D" style="fill:#F9DB4D;fill:color(display-p3 0.9765 0.8588 0.3020);fill-opacity:1;"/>
<g id="Group 788">
<path id="Vector" d="M16.8661 16.1264L12.7368 14.3123C12.6092 14.2592 12.4662 14.2574 12.3374 14.3073C12.2086 14.3572 12.1041 14.4549 12.0456 14.5801L11.8167 15.107C11.7908 15.1632 11.7692 15.2193 11.7476 15.2755C11.1327 14.8306 10.5548 14.3366 10.0198 13.7983C9.47909 13.2643 8.98354 12.6864 8.53829 12.0705L8.7197 11.9971L9.24667 11.7638C9.36591 11.7042 9.45759 11.6009 9.50264 11.4754C9.54768 11.3499 9.54264 11.2119 9.48856 11.09L7.67008 6.96495C7.61404 6.8406 7.51268 6.74232 7.38666 6.69015C7.26065 6.63798 7.11947 6.63584 6.99194 6.68419L6.46929 6.91312C6.02394 7.11544 5.64756 7.44371 5.38659 7.85743C5.12561 8.27114 4.99147 8.75221 5.00069 9.24128C5.02661 11.4658 6.16261 13.9106 8.02428 15.7852C9.88594 17.6598 12.3437 18.8088 14.5725 18.8088H14.5984C15.0875 18.818 15.5686 18.6838 15.9823 18.4229C16.396 18.1619 16.7243 17.7855 16.9266 17.3402L17.1555 16.8132C17.2074 16.6858 17.2074 16.5432 17.1555 16.4158C17.1012 16.2848 16.9971 16.1808 16.8661 16.1264ZM16.283 17.068C16.1365 17.3896 15.8996 17.6617 15.6013 17.8511C15.303 18.0405 14.9561 18.1391 14.6027 18.1349V18.4719V18.1349C12.551 18.1349 10.2833 17.0594 8.52101 15.3057C6.75869 13.552 5.70475 11.2844 5.68316 9.25855C5.67325 8.90182 5.76877 8.55009 5.95777 8.24737C6.14678 7.94466 6.42086 7.70442 6.74573 7.55671L7.13016 7.38393L8.82769 11.2282L8.44326 11.401C8.28494 11.4692 8.11766 11.5142 7.94653 11.5349C7.88939 11.542 7.83505 11.5637 7.78867 11.5978C7.74229 11.6319 7.70543 11.6774 7.6816 11.7298C7.65778 11.7822 7.64778 11.8398 7.65257 11.8972C7.65736 11.9546 7.67677 12.0098 7.70896 12.0575C8.78713 13.6742 10.1761 15.0603 11.7951 16.1351C11.8432 16.1667 11.8985 16.1857 11.9559 16.1902C12.0133 16.1948 12.0709 16.1847 12.1234 16.161C12.1748 16.1362 12.2194 16.0993 12.2533 16.0534C12.2872 16.0074 12.3093 15.9539 12.3178 15.8975C12.3379 15.7263 12.383 15.5589 12.4517 15.4008L12.6072 14.9775L16.4514 16.7052L16.283 17.068Z" fill="#000220" stroke="#000220" style="fill:#000220;fill:color(display-p3 0.0000 0.0078 0.1255);fill-opacity:1;stroke:#000220;stroke:color(display-p3 0.0000 0.0078 0.1255);stroke-opacity:1;" stroke-width="0.202812"/>
<path id="Vector_2" d="M17.165 6.56805C16.4345 5.84499 15.5134 5.34453 14.5092 5.12504C13.5051 4.90555 12.4592 4.97607 11.4936 5.32838C11.4094 5.3616 11.3419 5.42691 11.3058 5.50994C11.2698 5.59297 11.2682 5.68692 11.3014 5.77112C11.3346 5.85532 11.3999 5.92287 11.483 5.95892C11.566 5.99497 11.6599 5.99655 11.7441 5.96333C12.2563 5.77585 12.7969 5.67796 13.3423 5.67393C14.6005 5.67386 15.8085 6.16699 16.7071 7.0475C17.3428 7.68318 17.7862 8.48531 17.9864 9.36172C18.1866 10.2381 18.1355 11.1532 17.8388 12.0019C17.8231 12.0435 17.8159 12.0879 17.8177 12.1323C17.8194 12.1768 17.8301 12.2205 17.849 12.2608C17.8679 12.301 17.8948 12.3371 17.9279 12.3668C17.961 12.3966 17.9998 12.4193 18.0418 12.4338C18.0791 12.4396 18.1169 12.4396 18.1541 12.4338C18.2248 12.4346 18.2939 12.4128 18.3514 12.3716C18.4089 12.3305 18.4518 12.2721 18.4738 12.2049C18.6814 11.6167 18.7866 10.9972 18.7848 10.3734C18.7791 9.66367 18.633 8.96204 18.355 8.30895C18.077 7.65585 17.6726 7.0642 17.165 6.56805Z" fill="#000220" stroke="#000220" style="fill:#000220;fill:color(display-p3 0.0000 0.0078 0.1255);fill-opacity:1;stroke:#000220;stroke:color(display-p3 0.0000 0.0078 0.1255);stroke-opacity:1;" stroke-width="0.202812"/>
<path id="Vector_3" d="M11.5752 8.01113C11.9286 7.88355 12.301 7.81638 12.6767 7.81243H12.6983C13.5614 7.81357 14.3889 8.15633 15 8.76581C15.6111 9.37528 15.956 10.2019 15.9594 11.0649C15.961 11.4414 15.8982 11.8154 15.7737 12.1707C15.7586 12.2124 15.7519 12.2567 15.7539 12.301C15.7559 12.3452 15.7667 12.3887 15.7855 12.4288C15.8044 12.469 15.831 12.505 15.8638 12.5348C15.8966 12.5646 15.935 12.5877 15.9767 12.6027C16.0153 12.6088 16.0547 12.6088 16.0933 12.6027C16.1617 12.6034 16.2287 12.5831 16.2851 12.5445C16.3415 12.5058 16.3847 12.4507 16.4087 12.3867C16.6212 11.7908 16.6869 11.1526 16.6002 10.5259C16.5136 9.89928 16.2771 9.30277 15.9109 8.78694C15.5447 8.27112 15.0596 7.85118 14.4965 7.56274C13.9335 7.2743 13.3093 7.12584 12.6767 7.12997C12.2228 7.13088 11.7725 7.21128 11.3463 7.36753C11.2621 7.39789 11.1934 7.46045 11.1553 7.54146C11.1173 7.62246 11.1129 7.71527 11.1433 7.79947C11.1737 7.88367 11.2362 7.95237 11.3172 7.99044C11.3982 8.02851 11.491 8.03285 11.5752 8.00249V8.01113Z" fill="#000220" stroke="#000220" style="fill:#000220;fill:color(display-p3 0.0000 0.0078 0.1255);fill-opacity:1;stroke:#000220;stroke:color(display-p3 0.0000 0.0078 0.1255);stroke-opacity:1;" stroke-width="0.202812"/>
<path id="Vector_4" d="M14.1366 12.577C14.1727 12.59 14.2106 12.5973 14.249 12.5986C14.319 12.599 14.3874 12.5776 14.4446 12.5373C14.5019 12.4971 14.5453 12.44 14.5686 12.374C14.6648 12.1007 14.713 11.8128 14.7111 11.523C14.7077 10.8662 14.4438 10.2376 13.9773 9.7752C13.5109 9.31278 12.88 9.05436 12.2231 9.05666C11.9375 9.05806 11.6542 9.10772 11.3852 9.20351C11.3023 9.23558 11.2349 9.29837 11.1971 9.37881C11.1593 9.45925 11.154 9.55117 11.1822 9.63546C11.2133 9.71904 11.276 9.78709 11.3567 9.82504C11.4375 9.86299 11.5299 9.86781 11.6141 9.83847C11.8073 9.76517 12.0122 9.72713 12.2188 9.72616C12.5066 9.72696 12.7899 9.79667 13.0452 9.92948C13.3004 10.0623 13.5202 10.2543 13.686 10.4895C13.8518 10.7246 13.9588 10.9961 13.9981 11.2811C14.0375 11.5662 14.008 11.8565 13.912 12.1278C13.8946 12.1718 13.8866 12.2191 13.8886 12.2664C13.8907 12.3138 13.9027 12.3602 13.9239 12.4026C13.9451 12.445 13.975 12.4824 14.0117 12.5125C14.0483 12.5425 14.0909 12.5645 14.1366 12.577Z" fill="#000220" stroke="#000220" style="fill:#000220;fill:color(display-p3 0.0000 0.0078 0.1255);fill-opacity:1;stroke:#000220;stroke:color(display-p3 0.0000 0.0078 0.1255);stroke-opacity:1;" stroke-width="0.202812"/>
</g>
</g>
<defs>
<clipPath id="clip0_590_5364">
<rect width="24" height="24" fill="white" style="fill:white;fill-opacity:1;"/>
</clipPath>
</defs>
</svg>
