<svg width="32" height="32" viewBox="0 0 32 32" fill="none" xmlns="http://www.w3.org/2000/svg">
<g id="list">
<g id="Vector">
<path fill-rule="evenodd" clip-rule="evenodd" d="M11 8C11 7.44772 11.4477 7 12 7L26 7C26.5523 7 27 7.44772 27 8C27 8.55229 26.5523 9 26 9L12 9C11.4477 9 11 8.55228 11 8Z" fill="#888B92" style="fill:#888B92;fill:color(display-p3 0.5333 0.5451 0.5725);fill-opacity:1;"/>
<path fill-rule="evenodd" clip-rule="evenodd" d="M11 16C11 15.4477 11.4477 15 12 15H26C26.5523 15 27 15.4477 27 16C27 16.5523 26.5523 17 26 17H12C11.4477 17 11 16.5523 11 16Z" fill="#888B92" style="fill:#888B92;fill:color(display-p3 0.5333 0.5451 0.5725);fill-opacity:1;"/>
<path fill-rule="evenodd" clip-rule="evenodd" d="M11 24C11 23.4477 11.4477 23 12 23H26C26.5523 23 27 23.4477 27 24C27 24.5523 26.5523 25 26 25H12C11.4477 25 11 24.5523 11 24Z" fill="#888B92" style="fill:#888B92;fill:color(display-p3 0.5333 0.5451 0.5725);fill-opacity:1;"/>
<path d="M5 8C5 7.44772 5.44772 7 6 7H8C8.55228 7 9 7.44772 9 8C9 8.55228 8.55228 9 8 9H6C5.44772 9 5 8.55228 5 8Z" fill="#888B92" style="fill:#888B92;fill:color(display-p3 0.5333 0.5451 0.5725);fill-opacity:1;"/>
<path d="M5 16C5 15.4477 5.44772 15 6 15H8C8.55228 15 9 15.4477 9 16C9 16.5523 8.55228 17 8 17H6C5.44772 17 5 16.5523 5 16Z" fill="#888B92" style="fill:#888B92;fill:color(display-p3 0.5333 0.5451 0.5725);fill-opacity:1;"/>
<path d="M5 24C5 23.4477 5.44772 23 6 23H8C8.55228 23 9 23.4477 9 24C9 24.5523 8.55228 25 8 25H6C5.44772 25 5 24.5523 5 24Z" fill="#888B92" style="fill:#888B92;fill:color(display-p3 0.5333 0.5451 0.5725);fill-opacity:1;"/>
</g>
</g>
</svg>
