<svg width="24" height="24" viewBox="0 0 24 24" fill="none" xmlns="http://www.w3.org/2000/svg">
<g id="Frame">
<path id="Vector" d="M15.7 10.2998H3.4C2.6 10.2998 2 10.8998 2 11.5998V18.8998C2 19.6998 2.6 20.2998 3.4 20.2998H15.7C16.5 20.2998 17.1 19.6998 17.1 18.8998V11.5998C17.1 10.8998 16.4 10.2998 15.7 10.2998ZM4 12.2998H15.1V13.2998H4V12.2998ZM15.1 18.2998H4V15.1998H15.1V18.2998Z" fill="#000220" style="fill:#000220;fill:color(display-p3 0.0000 0.0078 0.1255);fill-opacity:1;"/>
<path id="Vector_2" d="M19.0996 14.3C18.7996 14.3 18.5996 14.2 18.3996 14C17.9996 13.6 17.9996 13 18.3996 12.6L19.6996 11.3L13.7996 5.4L10.2996 9C9.89961 9.4 9.29961 9.4 8.89961 9C8.49961 8.6 8.49961 8 8.89961 7.6L13.1996 3.3C13.5996 2.9 14.1996 2.9 14.5996 3.3L21.8996 10.6C22.2996 11 22.2996 11.6 21.8996 12L19.8996 14C19.5996 14.2 19.3996 14.3 19.0996 14.3Z" fill="#000220" style="fill:#000220;fill:color(display-p3 0.0000 0.0078 0.1255);fill-opacity:1;"/>
</g>
</svg>
