<svg width="24" height="23" viewBox="0 0 24 23" fill="none" xmlns="http://www.w3.org/2000/svg">
<g id="content">
<path id="Vector" d="M12.0007 9.00061C10.0007 9.00061 8.30073 7.30061 8.30073 5.30061C8.30073 3.30061 9.90073 1.60061 12.0007 1.60061C14.1007 1.60061 15.7007 3.30061 15.7007 5.30061C15.7007 7.30061 14.0007 9.00061 12.0007 9.00061ZM12.0007 3.60061C11.0007 3.60061 10.3007 4.30061 10.3007 5.30061C10.3007 6.30061 11.1007 7.00061 12.0007 7.00061C12.9007 7.00061 13.7007 6.20061 13.7007 5.30061C13.7007 4.40061 12.9007 3.60061 12.0007 3.60061Z" fill="#000220" style="fill:#000220;fill:color(display-p3 0.0000 0.0078 0.1255);fill-opacity:1;"/>
<path id="Vector_2" d="M18 19C17.5 19 17 18.6 17 18C17 15.2 14.7 13 12 13C9.3 13 7 15.3 7 18C7 18.5 6.6 19 6 19C5.4 19 5 18.6 5 18C5 16.1 5.7 14.4 7.1 13.1C8.4 11.7 10.1 11 12 11C13.9 11 15.6 11.7 17 13.1C18.3 14.4 19.1 16.2 19.1 18C19 18.6 18.6 19 18 19Z" fill="#000220" style="fill:#000220;fill:color(display-p3 0.0000 0.0078 0.1255);fill-opacity:1;"/>
</g>
</svg>
