<svg width="21" height="18" viewBox="0 0 21 18" fill="none" xmlns="http://www.w3.org/2000/svg">
<g id="content">
<path id="Vector" d="M19.6983 16.2712L14.5698 11.1864C15.4749 9.9661 15.8771 8.54237 15.8771 7.01695C15.8771 5.18644 15.1732 3.35593 13.8659 2.0339C12.5587 0.711864 10.8492 0 8.93855 0C7.12849 0 5.31844 0.711864 4.01117 2.0339C2.70391 3.35593 2 5.08475 2 7.01695C2 8.94915 2.70391 10.678 4.01117 12C5.31844 13.322 7.02793 14.0339 8.93855 14.0339C10.4469 14.0339 11.9553 13.5254 13.162 12.6102L18.2905 17.6949C18.4916 17.8983 18.6927 18 18.9944 18C19.2961 18 19.4972 17.8983 19.6983 17.6949C20.1006 17.2881 20.1006 16.5763 19.6983 16.2712ZM8.93855 12.1017C6.22346 12.1017 4.01117 9.76271 4.01117 7.01695C4.01117 4.27119 6.22346 2.0339 8.93855 2.0339C11.6536 2.0339 13.8659 4.27119 13.8659 7.01695C13.9665 9.76271 11.6536 12.1017 8.93855 12.1017Z" fill="#000220" style="fill:#000220;fill:color(display-p3 0.0000 0.0078 0.1255);fill-opacity:1;"/>
</g>
</svg>
