<svg width="56" height="26" viewBox="0 0 56 26" fill="none" xmlns="http://www.w3.org/2000/svg">
<path d="M8.47718 0.418945C9.15027 2.43011 8.45916 6.09753 7.69592 8.20334C4.73915 8.93682 0.874921 11.6105 0.027554 14.1008C-0.0445623 14.2842 0.0395734 14.1244 0.11169 14.1244C2.2271 13.8109 5.0156 14.7692 6.99279 16.4255C7.13101 17.6913 6.14542 20.0633 8.99402 25.4698C9.43874 24.2572 11.0914 20.5957 14.6912 18.7087C16.8246 20.3472 21.398 23.2102 26.8188 23.0091C35.2684 22.6364 40.7853 19.176 55.3588 20.7672V17.1116C41.8069 15.5796 35.028 19.8444 31.1998 20.436C23.9281 21.548 18.7778 20.1698 14.8475 16.8928C11.3799 18.8448 10.3282 20.6785 9.11421 23.2043C7.62982 20.3177 8.29689 17.2003 8.83176 15.2897C6.3197 14.1599 3.17062 12.9473 1.81844 12.9592C2.06484 11.7643 5.95912 9.47511 8.99402 9.5106C9.87143 4.9559 9.49282 2.67855 9.46878 1.38312C11.0614 1.72029 14.0301 4.15735 14.9136 8.32756C18.8679 7.91349 21.6384 6.97298 23.0807 4.89083C23.0807 7.04396 21.5242 10.6108 21.6384 10.457C22.7622 8.87767 24.1144 6.02063 23.6396 3.62498C21.0975 6.53525 17.2994 6.7482 15.7189 6.57075C15.0278 5.00913 12.4195 0.85667 8.47718 0.418945Z" fill="#F8D84A" style="fill:#F8D84A;fill:color(display-p3 0.9725 0.8471 0.2902);fill-opacity:1;"/>
<path d="M28.9634 15.4195V12.6631C28.9634 12.1129 28.8552 11.758 28.6569 11.5865C28.4406 11.3972 28.08 11.3203 27.5511 11.3203H23.1821L23.104 11.9296C23.3804 11.8586 23.753 11.8172 24.2518 11.8172H27.485C27.7014 11.8172 27.8516 11.8586 27.8937 11.9414C27.9658 12.0124 27.9838 12.1603 27.9838 12.391V12.4324C27.9838 12.7045 27.9658 12.8523 27.8757 12.9411C27.8096 12.9943 27.6773 13.0239 27.491 13.0239H24.4141C23.8492 13.0239 23.4946 13.1304 23.2963 13.3374C23.11 13.5208 23.0078 13.8816 23.0078 14.3666V15.1711C23.0078 15.6975 23.116 16.0761 23.2963 16.2536C23.4886 16.4369 23.8732 16.5493 24.4141 16.5493H27.2987C27.5331 16.5493 27.7074 16.5316 27.7855 16.4843C27.8757 16.4429 27.9658 16.3601 28.0259 16.2122L28.1341 16.5493H29.0536C28.9875 16.3009 28.9634 15.946 28.9634 15.4195ZM27.9838 15.4432C27.9838 15.6975 27.9358 15.8454 27.8757 15.9282C27.8096 15.9933 27.6773 16.0406 27.491 16.0406H24.4561C24.2398 16.0406 24.1136 15.9933 24.0535 15.9105C24.0054 15.8218 23.9874 15.6798 23.9874 15.4432V14.1123C23.9874 13.8461 24.0114 13.6746 24.0956 13.5917C24.1436 13.5444 24.2638 13.5208 24.4561 13.5208H27.9898V15.4432H27.9838Z" fill="#1A1818" style="fill:#1A1818;fill:color(display-p3 0.1020 0.0941 0.0941);fill-opacity:1;"/>
<path d="M48.2789 14.2366V12.6631C48.2789 12.1367 48.1948 11.7818 47.9845 11.6043C47.7861 11.415 47.4256 11.3145 46.8967 11.3145H43.6154C43.0685 11.3145 42.6959 11.415 42.5096 11.622C42.3113 11.8113 42.2031 12.1722 42.2031 12.6572V15.1652C42.2031 15.6917 42.3113 16.0703 42.5096 16.2477C42.72 16.4311 43.0866 16.5435 43.6154 16.5435H48.1708L48.2789 15.9106C48.0446 15.9934 47.6599 16.0407 47.1491 16.0407H43.6575C43.4592 16.0407 43.3149 15.9934 43.2729 15.9106C43.2067 15.8218 43.1827 15.6799 43.1827 15.4433V14.2366H48.2789ZM43.1827 12.391C43.1827 12.1367 43.2007 11.9592 43.2729 11.9296C43.339 11.8587 43.4652 11.8172 43.6575 11.8172H46.8246C47.059 11.8172 47.1852 11.8587 47.2513 11.9296C47.2994 11.9888 47.3174 12.0716 47.3174 12.2431V13.7279H43.1827V12.391Z" fill="#1A1818" style="fill:#1A1818;fill:color(display-p3 0.1020 0.0941 0.0941);fill-opacity:1;"/>
<path d="M33.802 11.3145L33.754 12.113C33.4595 12.0716 33.2491 12.0479 33.0989 12.0479C32.6001 11.9888 32.3236 11.9592 32.2996 11.9592H31.4883C31.296 11.9592 31.1698 12.0065 31.0977 12.0716C31.0256 12.1367 30.9895 12.3023 30.9895 12.5566V15.4196C30.9895 15.8869 31.0256 16.2655 31.0977 16.5376H29.9258C29.9799 16.2418 30.0279 15.8573 30.0279 15.4196V12.4088C30.0279 11.9829 29.9799 11.622 29.9258 11.3145H30.8873L30.9294 11.8113C31.0316 11.622 31.1217 11.4978 31.1638 11.4564C31.2659 11.3499 31.4402 11.3145 31.6566 11.3145H33.802Z" fill="#1A1818" style="fill:#1A1818;fill:color(display-p3 0.1020 0.0941 0.0941);fill-opacity:1;"/>
<path d="M53.8014 15.9101L53.7233 16.543H51.2593C50.7425 16.543 50.3819 16.4602 50.1896 16.2709C49.9492 16.0757 49.8471 15.6972 49.8471 15.1707V11.8168H49.0117V11.3199H49.8471V10.2789L50.8327 10.1191V11.3199H53.525V11.8168H50.8327V15.4428C50.8327 15.6735 50.8507 15.8214 50.9228 15.9101C50.9829 15.9929 51.1031 16.0402 51.3014 16.0402H52.6416C53.1344 16.0343 53.543 15.9929 53.8014 15.9101Z" fill="#1A1818" style="fill:#1A1818;fill:color(display-p3 0.1020 0.0941 0.0941);fill-opacity:1;"/>
<path d="M22.4798 15.9101L22.3776 16.543H19.9377C19.3968 16.543 19.0362 16.4602 18.8379 16.2709C18.6276 16.0757 18.5194 15.6972 18.5194 15.1707V11.8168H17.666V11.3199H18.5194V10.2789L19.4809 10.1191V11.3199H22.1793V11.8168H19.4809V15.4428C19.4809 15.6735 19.499 15.8214 19.5711 15.9101C19.6312 15.9929 19.7814 16.0402 19.9797 16.0402H21.3259C21.8187 16.0343 22.1973 15.9929 22.4798 15.9101Z" fill="#1A1818" style="fill:#1A1818;fill:color(display-p3 0.1020 0.0941 0.0941);fill-opacity:1;"/>
<path d="M41.2707 9.41607C41.2407 9.51071 41.2227 9.71183 41.2046 10.0313C41.2046 10.3388 41.1866 10.6464 41.1626 10.9363V16.5439H39.6421L35.0687 10.2146L35.0387 15.3372L35.1529 16.538H34.3115C34.3536 16.4078 34.4017 16.1535 34.4197 15.7572C34.4197 15.3372 34.4377 14.9349 34.4377 14.5505V11.096C34.4377 10.3152 34.3957 9.74141 34.3296 9.41016H35.832L40.4955 15.7986L40.5316 10.6346L40.4294 9.41016H41.2707V9.41607Z" fill="#1A1818" style="fill:#1A1818;fill:color(display-p3 0.1020 0.0941 0.0941);fill-opacity:1;"/>
<path d="M16.8778 15.1538C16.8778 15.6803 16.7756 16.0352 16.5593 16.2245C16.3189 16.4315 15.8982 16.538 15.2732 16.538H10.6758L10.6097 15.8577C10.7359 15.8814 10.8621 15.8814 10.9282 15.8814C11.5472 15.9405 11.9378 15.9583 12.04 15.9583H15.2071C15.3994 15.9583 15.5196 15.9169 15.6218 15.84C15.6819 15.7512 15.6999 15.6034 15.6999 15.3727V13.9885C15.6999 13.7578 15.6819 13.6099 15.6338 13.539C15.5737 13.4621 15.4355 13.4147 15.2071 13.4147H12.1602C11.5412 13.4147 11.1145 13.3319 10.9042 13.1663C10.6517 12.977 10.5195 12.5984 10.5195 12.0483V10.7825C10.5195 10.2324 10.6517 9.87746 10.8561 9.68817C11.0724 9.51071 11.5231 9.41016 12.1602 9.41016H16.6434L16.7215 10.0667C16.5713 10.049 16.4631 10.049 16.379 10.049C15.8441 10.0253 15.4835 10.0017 15.2672 10.0017H12.2022C11.9919 10.0017 11.8897 10.0253 11.8477 10.0667C11.7816 10.1259 11.7395 10.2974 11.7155 10.5695V11.7526C11.7155 12.0069 11.7395 12.1548 11.7816 12.2376C11.8477 12.2968 11.9679 12.3441 12.2022 12.3441H15.2672C15.8922 12.3441 16.3189 12.4269 16.5533 12.6162C16.7696 12.8114 16.8718 13.1663 16.8718 13.7164V15.1538H16.8778Z" fill="#1A1818" style="fill:#1A1818;fill:color(display-p3 0.1020 0.0941 0.0941);fill-opacity:1;"/>
</svg>
