<svg width="45" height="45" viewBox="0 0 45 45" fill="none" xmlns="http://www.w3.org/2000/svg">
<path d="M42.1875 0C43.6816 0 45 1.31836 45 2.8125C45 4.39453 43.6816 5.625 42.1875 5.625V39.375C43.6816 39.375 45 40.6934 45 42.1875C45 43.7695 43.6816 45 42.1875 45H26.7188V39.375H18.2812V45H2.8125C1.23047 45 0 43.7695 0 42.1875C0 40.6934 1.23047 39.375 2.8125 39.375V5.625C1.23047 5.625 0 4.39453 0 2.8125C0 1.31836 1.23047 0 2.8125 0H42.1875ZM9.84375 8.4375C9.05273 8.4375 8.4375 9.14062 8.4375 9.84375V12.6562C8.4375 13.4473 9.05273 14.0625 9.84375 14.0625H12.6562C13.3594 14.0625 14.0625 13.4473 14.0625 12.6562V9.84375C14.0625 9.14062 13.3594 8.4375 12.6562 8.4375H9.84375ZM19.6875 12.6562C19.6875 13.4473 20.3027 14.0625 21.0938 14.0625H23.9062C24.6094 14.0625 25.3125 13.4473 25.3125 12.6562V9.84375C25.3125 9.14062 24.6094 8.4375 23.9062 8.4375H21.0938C20.3027 8.4375 19.6875 9.14062 19.6875 9.84375V12.6562ZM32.3438 8.4375C31.5527 8.4375 30.9375 9.14062 30.9375 9.84375V12.6562C30.9375 13.4473 31.5527 14.0625 32.3438 14.0625H35.1562C35.8594 14.0625 36.5625 13.4473 36.5625 12.6562V9.84375C36.5625 9.14062 35.8594 8.4375 35.1562 8.4375H32.3438ZM8.4375 21.0938C8.4375 21.8848 9.05273 22.5 9.84375 22.5H12.6562C13.3594 22.5 14.0625 21.8848 14.0625 21.0938V18.2812C14.0625 17.5781 13.3594 16.875 12.6562 16.875H9.84375C9.05273 16.875 8.4375 17.5781 8.4375 18.2812V21.0938ZM21.0938 16.875C20.3027 16.875 19.6875 17.5781 19.6875 18.2812V21.0938C19.6875 21.8848 20.3027 22.5 21.0938 22.5H23.9062C24.6094 22.5 25.3125 21.8848 25.3125 21.0938V18.2812C25.3125 17.5781 24.6094 16.875 23.9062 16.875H21.0938ZM30.9375 21.0938C30.9375 21.8848 31.5527 22.5 32.3438 22.5H35.1562C35.8594 22.5 36.5625 21.8848 36.5625 21.0938V18.2812C36.5625 17.5781 35.8594 16.875 35.1562 16.875H32.3438C31.5527 16.875 30.9375 17.5781 30.9375 18.2812V21.0938ZM22.5 25.3125C18.5449 25.3125 15.2051 28.0371 14.2383 31.7285C13.9746 32.8711 14.9414 33.75 16.1719 33.75H28.8281C29.9707 33.75 30.9375 32.8711 30.6738 31.7285C29.707 28.0371 26.3672 25.3125 22.5 25.3125Z" fill="#A3B18A"/>
</svg>
