<svg width="51" height="45" viewBox="0 0 51 45" fill="none" xmlns="http://www.w3.org/2000/svg">
<path d="M50.5371 22.5C50.5371 24.082 49.2188 25.3125 47.7246 25.3125H44.9121L45 39.375C45 39.6387 45 39.9023 45 40.0781V41.4844C45 43.5059 43.418 45 41.4844 45H40.0781C39.9023 45 39.8145 45 39.7266 45C39.6387 45 39.4629 45 39.375 45H34.4531C32.4316 45 30.9375 43.5059 30.9375 41.4844V33.75C30.9375 32.2559 29.6191 30.9375 28.125 30.9375H22.5C20.918 30.9375 19.6875 32.2559 19.6875 33.75V41.4844C19.6875 43.5059 18.1055 45 16.1719 45H11.25C11.0742 45 10.9863 45 10.8105 45C10.7227 45 10.6348 45 10.5469 45H9.14062C7.11914 45 5.625 43.5059 5.625 41.4844V31.6406C5.625 31.6406 5.625 31.5527 5.625 31.4648V25.3125H2.8125C1.23047 25.3125 0 24.082 0 22.5C0 21.709 0.263672 21.0059 0.878906 20.3906L23.3789 0.791016C23.9941 0.175781 24.6973 0 25.3125 0C25.9277 0 26.6309 0.263672 27.1582 0.703125L49.5703 20.3906C50.2734 21.0059 50.625 21.709 50.5371 22.5Z" fill="#A3B18A"/>
</svg>
