<svg width="34" height="29" viewBox="0 0 34 29" fill="none" xmlns="http://www.w3.org/2000/svg">
<path d="M4.92188 0C5.81055 0 6.5625 0.751953 6.5625 1.64062V4.92188C6.5625 5.87891 5.81055 6.5625 4.92188 6.5625H1.64062C0.683594 6.5625 0 5.87891 0 4.92188V1.64062C0 0.751953 0.683594 0 1.64062 0H4.92188ZM31.7188 1.09375C32.8809 1.09375 33.9062 2.11914 33.9062 3.28125C33.9062 4.51172 32.8809 5.46875 31.7188 5.46875H12.0312C10.8008 5.46875 9.84375 4.51172 9.84375 3.28125C9.84375 2.11914 10.8008 1.09375 12.0312 1.09375H31.7188ZM31.7188 12.0312C32.8809 12.0312 33.9062 13.0566 33.9062 14.2188C33.9062 15.4492 32.8809 16.4062 31.7188 16.4062H12.0312C10.8008 16.4062 9.84375 15.4492 9.84375 14.2188C9.84375 13.0566 10.8008 12.0312 12.0312 12.0312H31.7188ZM31.7188 22.9688C32.8809 22.9688 33.9062 23.9941 33.9062 25.1562C33.9062 26.3867 32.8809 27.3438 31.7188 27.3438H12.0312C10.8008 27.3438 9.84375 26.3867 9.84375 25.1562C9.84375 23.9941 10.8008 22.9688 12.0312 22.9688H31.7188ZM0 12.5781C0 11.6895 0.683594 10.9375 1.64062 10.9375H4.92188C5.81055 10.9375 6.5625 11.6895 6.5625 12.5781V15.8594C6.5625 16.8164 5.81055 17.5 4.92188 17.5H1.64062C0.683594 17.5 0 16.8164 0 15.8594V12.5781ZM4.92188 21.875C5.81055 21.875 6.5625 22.627 6.5625 23.5156V26.7969C6.5625 27.7539 5.81055 28.4375 4.92188 28.4375H1.64062C0.683594 28.4375 0 27.7539 0 26.7969V23.5156C0 22.627 0.683594 21.875 1.64062 21.875H4.92188Z" fill="#A3B18A"/>
</svg>
