<svg width="12" height="20" viewBox="0 0 12 20" fill="none" xmlns="http://www.w3.org/2000/svg">
<path d="M11.25 5.625C11.25 8.75 8.71094 11.25 5.625 11.25C2.5 11.25 0 8.75 0 5.625C0 2.53906 2.5 0 5.625 0C8.71094 0 11.25 2.53906 11.25 5.625ZM6.25 2.5C6.25 2.1875 5.9375 1.875 5.625 1.875C3.51562 1.875 1.875 3.55469 1.875 5.625C1.875 5.97656 2.14844 6.25 2.5 6.25C2.8125 6.25 3.125 5.97656 3.125 5.625C3.125 4.25781 4.21875 3.125 5.625 3.125C5.9375 3.125 6.25 2.85156 6.25 2.5ZM4.375 18.75V12.4219C4.76562 12.4609 5.19531 12.5 5.625 12.5C6.01562 12.5 6.44531 12.4609 6.875 12.4219V18.75C6.875 19.4531 6.28906 20 5.625 20C4.92188 20 4.375 19.4531 4.375 18.75Z" fill="#F3ECDC"/>
</svg>
