<svg width="44" height="35" viewBox="0 0 44 35" fill="none" xmlns="http://www.w3.org/2000/svg">
<path d="M28.4375 12.0312C28.4375 18.7305 22.0117 24.0625 14.2188 24.0625C11.5527 24.0625 9.16016 23.5156 7.04102 22.4219C5.33203 23.3105 3.14453 24.0625 0.478516 24.0625C0.273438 24.0625 0.0683594 23.9941 0 23.7891C-0.0683594 23.584 -0.0683594 23.3789 0.136719 23.2422C0.136719 23.1738 1.70898 21.5332 2.80273 19.2773C1.02539 17.2266 0 14.7656 0 12.0312C0 5.40039 6.35742 0 14.2188 0C22.0117 0 28.4375 5.40039 28.4375 12.0312ZM40.9473 30.3516C42.041 32.5391 43.5449 34.1113 43.5449 34.1797C43.6816 34.3164 43.75 34.5215 43.6816 34.7266C43.6133 34.9316 43.4082 35 43.2031 35C40.7422 35 38.623 34.3164 36.9141 33.5645C35.0684 34.4531 32.8809 35 30.625 35C24.4043 35 19.2773 31.1719 17.8418 25.9082C25.1562 24.4727 30.625 18.7988 30.625 12.0312C30.625 11.6895 30.5566 11.3477 30.5566 11.0059C30.5566 11.0059 30.5566 10.9375 30.625 10.9375C37.8711 10.9375 43.75 16.3379 43.75 22.9688C43.75 25.7715 42.6562 28.3008 40.9473 30.3516Z" fill="#A3B18A"/>
</svg>
