<svg width="45" height="45" viewBox="0 0 45 45" fill="none" xmlns="http://www.w3.org/2000/svg">
<path d="M0 5.625C0 2.54883 2.46094 0 5.625 0H30.9375C34.0137 0 36.5625 2.54883 36.5625 5.625V11.25C36.5625 14.4141 34.0137 16.875 30.9375 16.875H5.625C2.46094 16.875 0 14.4141 0 11.25V5.625ZM14.0625 30.9375C14.0625 29.4434 15.293 28.125 16.875 28.125V26.7188C16.875 22.8516 19.9512 19.6875 23.9062 19.6875H36.5625C38.0566 19.6875 39.375 18.457 39.375 16.875V6.15234C42.627 7.29492 45 10.459 45 14.0625V16.875C45 21.5332 41.2207 25.3125 36.5625 25.3125H23.9062C23.1152 25.3125 22.5 26.0156 22.5 26.7188V28.125C23.9941 28.125 25.3125 29.4434 25.3125 30.9375V42.1875C25.3125 43.7695 23.9941 45 22.5 45H16.875C15.293 45 14.0625 43.7695 14.0625 42.1875V30.9375Z" fill="#A3B18A"/>
</svg>
