<svg width="57" height="45" viewBox="0 0 57 45" fill="none" xmlns="http://www.w3.org/2000/svg">
<path d="M25.3125 4.21875C25.3125 1.93359 27.1582 0 29.5312 0H37.9688C40.2539 0 42.1875 1.93359 42.1875 4.21875V16.875H45.7031V10.5469C45.7031 9.4043 46.582 8.4375 47.8125 8.4375C48.9551 8.4375 49.9219 9.4043 49.9219 10.5469V16.875H52.0312C54.3164 16.875 56.25 18.8086 56.25 21.0938V40.7812C56.25 43.1543 54.3164 45 52.0312 45H29.5312C27.1582 45 25.3125 43.1543 25.3125 40.7812V4.21875ZM30.9375 9.84375C30.9375 10.6348 31.5527 11.25 32.3438 11.25H35.1562C35.8594 11.25 36.5625 10.6348 36.5625 9.84375V7.03125C36.5625 6.32812 35.8594 5.625 35.1562 5.625H32.3438C31.5527 5.625 30.9375 6.32812 30.9375 7.03125V9.84375ZM32.3438 14.0625C31.5527 14.0625 30.9375 14.7656 30.9375 15.4688V18.2812C30.9375 19.0723 31.5527 19.6875 32.3438 19.6875H35.1562C35.8594 19.6875 36.5625 19.0723 36.5625 18.2812V15.4688C36.5625 14.7656 35.8594 14.0625 35.1562 14.0625H32.3438ZM30.9375 26.7188C30.9375 27.5098 31.5527 28.125 32.3438 28.125H35.1562C35.8594 28.125 36.5625 27.5098 36.5625 26.7188V23.9062C36.5625 23.2031 35.8594 22.5 35.1562 22.5H32.3438C31.5527 22.5 30.9375 23.2031 30.9375 23.9062V26.7188ZM46.4062 22.5C45.6152 22.5 45 23.2031 45 23.9062V26.7188C45 27.5098 45.6152 28.125 46.4062 28.125H49.2188C49.9219 28.125 50.625 27.5098 50.625 26.7188V23.9062C50.625 23.2031 49.9219 22.5 49.2188 22.5H46.4062ZM45 35.1562C45 35.9473 45.6152 36.5625 46.4062 36.5625H49.2188C49.9219 36.5625 50.625 35.9473 50.625 35.1562V32.3438C50.625 31.6406 49.9219 30.9375 49.2188 30.9375H46.4062C45.6152 30.9375 45 31.6406 45 32.3438V35.1562ZM19.6875 14.0625C19.6875 14.5898 19.5996 15.0293 19.5117 15.4688C21.2695 16.6992 22.5 18.8086 22.5 21.0938C22.5 25.0488 19.3359 28.125 15.4688 28.125H14.0625V42.1875C14.0625 43.7695 12.7441 45 11.25 45C9.66797 45 8.4375 43.7695 8.4375 42.1875V28.125H7.03125C3.07617 28.125 0 25.0488 0 21.0938C0 18.8086 1.14258 16.6992 2.90039 15.4688C2.8125 15.0293 2.8125 14.5898 2.8125 14.0625C2.8125 9.4043 6.50391 5.625 11.25 5.625C15.9082 5.625 19.6875 9.4043 19.6875 14.0625Z" fill="#A3B18A"/>
</svg>
