<svg width="45" height="46" viewBox="0 0 45 46" fill="none" xmlns="http://www.w3.org/2000/svg">
<path d="M30.9375 8.4375C30.9375 9.75586 30.5859 10.8984 30.1465 12.041L34.8047 20.0391C32.6953 22.2363 29.9707 23.9062 26.9824 24.6973L22.5 16.875H22.4121L16.4355 27.2461C18.3691 27.8613 20.3906 28.125 22.5 28.125C28.6523 28.125 34.1895 25.3125 37.793 20.7422C38.7598 19.5996 40.6055 19.3359 41.748 20.3027C42.9785 21.3574 43.1543 23.1152 42.1875 24.2578C37.6172 30.0586 30.4102 33.75 22.5 33.75C19.3359 33.75 16.3477 33.2227 13.623 32.168L8.61328 40.7812C8.17383 41.4844 7.55859 42.0996 6.85547 42.4512L2.02148 44.9121C1.58203 45.0879 1.05469 45.0879 0.615234 44.8242C0.175781 44.5605 0 44.1211 0 43.5938V38.7598C0 38.0566 0.175781 37.2656 0.527344 36.6504L5.80078 27.5098C4.6582 26.543 3.60352 25.4883 2.72461 24.2578C1.75781 23.1152 1.93359 21.3574 3.16406 20.3027C4.30664 19.3359 6.15234 19.5996 7.11914 20.7422C7.55859 21.4453 8.08594 21.9727 8.70117 22.5879L14.7656 12.041C14.3262 10.8984 14.0625 9.75586 14.0625 8.4375C14.0625 3.7793 17.7539 0 22.5 0C27.1582 0 30.9375 3.7793 30.9375 8.4375ZM22.5 11.25C23.9941 11.25 25.3125 10.0195 25.3125 8.4375C25.3125 6.94336 23.9941 5.625 22.5 5.625C20.918 5.625 19.6875 6.94336 19.6875 8.4375C19.6875 10.0195 20.918 11.25 22.5 11.25ZM32.6953 34.6289C35.5957 33.5742 38.2324 31.9922 40.5176 29.9707L44.3848 36.6504C44.7363 37.2656 45 38.0566 45 38.7598V43.5938C45 44.1211 44.7363 44.5605 44.2969 44.8242C43.8574 45.0879 43.3301 45.0879 42.8906 44.9121L38.0566 42.4512C37.3535 42.0996 36.7383 41.4844 36.2988 40.7812L32.6953 34.6289Z" fill="#A3B18A"/>
</svg>
