<svg width="18" height="18" viewBox="0 0 18 18" fill="none" xmlns="http://www.w3.org/2000/svg">
<path d="M15 0C16.3672 0 17.5 1.13281 17.5 2.5V15C17.5 16.4062 16.3672 17.5 15 17.5H2.5C1.09375 17.5 0 16.4062 0 15V2.5C0 1.13281 1.09375 0 2.5 0H15ZM13.7109 11.3281C13.7891 11.0547 13.6328 10.7422 13.3594 10.625L11.25 9.72656C10.9766 9.60938 10.7031 9.6875 10.5469 9.88281L9.6875 10.9375C8.32031 10.2734 7.22656 9.17969 6.5625 7.8125L7.61719 6.95312C7.8125 6.79688 7.89062 6.52344 7.77344 6.25L6.875 4.14062C6.75781 3.86719 6.44531 3.71094 6.17188 3.78906L4.21875 4.21875C3.94531 4.29688 3.75 4.53125 3.75 4.84375C3.75 9.76562 7.73438 13.75 12.6562 13.75C12.9688 13.75 13.2031 13.5938 13.2422 13.2812L13.7109 11.3281Z" fill="#F3ECDC"/>
</svg>
