<svg width="20" height="20" viewBox="0 0 20 20" fill="none" xmlns="http://www.w3.org/2000/svg">
<path d="M19.375 9.6875C19.375 15.0391 15.0391 19.375 9.6875 19.375C8.67188 19.375 7.69531 19.2578 6.79688 18.9453C7.1875 18.3203 7.77344 17.2656 8.00781 16.4062C8.125 15.9766 8.59375 14.1016 8.59375 14.1016C8.90625 14.7266 9.84375 15.2344 10.8203 15.2344C13.75 15.2344 15.8594 12.5391 15.8594 9.21875C15.8594 6.01562 13.2422 3.59375 9.88281 3.59375C5.70312 3.59375 3.47656 6.40625 3.47656 9.45312C3.47656 10.8984 4.21875 12.6562 5.42969 13.2422C5.625 13.3203 5.74219 13.2812 5.78125 13.0859C5.78125 12.9688 5.97656 12.3047 6.05469 11.9922C6.05469 11.9141 6.05469 11.7969 5.97656 11.7188C5.58594 11.25 5.27344 10.3516 5.27344 9.49219C5.27344 7.38281 6.875 5.3125 9.64844 5.3125C11.9922 5.3125 13.6719 6.91406 13.6719 9.25781C13.6719 11.875 12.3438 13.6719 10.625 13.6719C9.6875 13.6719 8.98438 12.8906 9.17969 11.9531C9.45312 10.7812 10 9.53125 10 8.71094C10 7.96875 9.60938 7.34375 8.78906 7.34375C7.8125 7.34375 7.03125 8.35938 7.03125 9.6875C7.03125 10.5469 7.30469 11.1328 7.30469 11.1328C7.30469 11.1328 6.36719 15.1953 6.17188 15.9375C5.97656 16.7969 6.05469 17.9688 6.13281 18.7109C2.53906 17.3047 0 13.8281 0 9.6875C0 4.33594 4.33594 0 9.6875 0C15.0391 0 19.375 4.33594 19.375 9.6875Z" fill="#F3ECDC"/>
</svg>
