<svg width="40" height="29" viewBox="0 0 40 29" fill="none" xmlns="http://www.w3.org/2000/svg">
<path d="M8.4375 11.25C13.0957 11.25 16.875 15.0293 16.875 19.6875C16.875 24.4336 13.0957 28.125 8.4375 28.125C3.69141 28.125 0 24.4336 0 19.6875V11.25C0 5.09766 5.00977 0 11.25 0C12.7441 0 14.0625 1.31836 14.0625 2.8125C14.0625 4.39453 12.7441 5.625 11.25 5.625C8.08594 5.625 5.625 8.17383 5.625 11.25V11.7773C6.50391 11.5137 7.38281 11.25 8.4375 11.25ZM30.9375 11.25C35.5957 11.25 39.375 15.0293 39.375 19.6875C39.375 24.4336 35.5957 28.125 30.9375 28.125C26.1914 28.125 22.5 24.4336 22.5 19.6875V11.25C22.5 5.09766 27.5098 0 33.75 0C35.2441 0 36.5625 1.31836 36.5625 2.8125C36.5625 4.39453 35.2441 5.625 33.75 5.625C30.5859 5.625 28.125 8.17383 28.125 11.25V11.7773C29.0039 11.5137 29.8828 11.25 30.9375 11.25Z" fill="#DADADA"/>
</svg>
