<svg width="43" height="45" viewBox="0 0 43 45" fill="none" xmlns="http://www.w3.org/2000/svg">
<path d="M21.1816 0C21.5332 0 21.9727 0.175781 22.3242 0.263672L38.8477 7.29492C40.7812 8.17383 42.2754 10.0195 42.2754 12.3047C42.1875 21.0938 38.584 37.002 23.4668 44.2969C21.9727 45 20.3027 45 18.8086 44.2969C3.69141 37.002 0.0878906 21.0938 0 12.3047C0 10.0195 1.49414 8.17383 3.42773 7.29492L19.9512 0.263672C20.3027 0.175781 20.7422 0 21.1816 0ZM21.1816 39.1113C33.2227 33.2227 36.5625 20.3027 36.6504 12.4805L21.1816 5.88867V39.1113Z" fill="#A3B18A"/>
</svg>
