<svg width="6" height="9" viewBox="0 0 6 9" fill="none" xmlns="http://www.w3.org/2000/svg">
<path d="M0.86 9C0.692 9 0.56 8.952 0.464 8.856C0.368 8.76 0.32 8.632 0.32 8.472C0.32 8.304 0.368 8.176 0.464 8.088C0.56 8 0.692 7.956 0.86 7.956H2.324V1.572H2.948L1.196 2.688C1.068 2.76 0.948 2.788 0.836 2.772C0.732 2.756 0.64 2.712 0.56 2.64C0.488 2.568 0.436 2.48 0.404 2.376C0.38 2.272 0.388 2.164 0.428 2.052C0.476 1.94 0.56 1.848 0.68 1.776L2.336 0.732C2.472 0.651999 2.6 0.587999 2.72 0.539999C2.848 0.484 2.968 0.456 3.08 0.456C3.216 0.456 3.328 0.496 3.416 0.576C3.512 0.648 3.56 0.772 3.56 0.948V7.956H4.904C5.08 7.956 5.216 8 5.312 8.088C5.408 8.176 5.456 8.304 5.456 8.472C5.456 8.64 5.408 8.772 5.312 8.868C5.216 8.956 5.08 9 4.904 9H0.86Z" fill="#253137"/>
</svg>
