<svg width="40" height="40" viewBox="0 0 40 40" fill="none" xmlns="http://www.w3.org/2000/svg">
<path d="M12.3335 22C13.0675 21.4495 14.1079 21.596 14.6615 22.3264L14.6693 22.3363C14.6792 22.3488 14.6981 22.3723 14.7256 22.4051C14.7809 22.4709 14.8704 22.5736 14.9925 22.701C15.238 22.9572 15.6069 23.3047 16.0846 23.6521C17.0463 24.3516 18.376 25 20.0001 25C21.6242 25 22.9539 24.3516 23.9157 23.6521C24.3933 23.3047 24.7622 22.9572 25.0077 22.701C25.1298 22.5736 25.2193 22.4709 25.2746 22.4051C25.3022 22.3723 25.321 22.3488 25.3309 22.3363L25.3387 22.3264C25.8923 21.596 26.9327 21.4495 27.6668 22C28.4032 22.5523 28.5524 23.5969 28.0001 24.3333L26.6668 23.3333C28.0001 24.3333 28.0005 24.3328 28.0001 24.3333L27.9984 24.3356L27.9965 24.3381L27.9919 24.3442L27.9799 24.3598L27.9444 24.4053C27.9157 24.4416 27.8768 24.4897 27.8278 24.548C27.7301 24.6645 27.5918 24.8222 27.4144 25.0073C27.0609 25.3762 26.5444 25.862 25.8762 26.3479C24.5463 27.3151 22.5427 28.3333 20.0001 28.3333C17.4576 28.3333 15.4539 27.3151 14.124 26.3479C13.4558 25.862 12.9393 25.3762 12.5859 25.0073C12.4085 24.8222 12.2701 24.6645 12.1724 24.548C12.1235 24.4897 12.0845 24.4416 12.0558 24.4053L12.0203 24.3598L12.0083 24.3442L12.0037 24.3381L12.0018 24.3356C12.0014 24.335 12.0001 24.3333 13.3335 23.3333L12.0001 24.3333C11.4478 23.5969 11.5971 22.5523 12.3335 22Z" fill="#84A98C"/>
<path d="M13.3334 15C13.3334 14.0795 14.0795 13.3333 15 13.3333H15.0167C15.9372 13.3333 16.6834 14.0795 16.6834 15C16.6834 15.9205 15.9372 16.6667 15.0167 16.6667H15C14.0795 16.6667 13.3334 15.9205 13.3334 15Z" fill="#84A98C"/>
<path d="M25 13.3333C24.0795 13.3333 23.3334 14.0795 23.3334 15C23.3334 15.9205 24.0795 16.6667 25 16.6667H25.0167C25.9372 16.6667 26.6834 15.9205 26.6834 15C26.6834 14.0795 25.9372 13.3333 25.0167 13.3333H25Z" fill="#84A98C"/>
<path fill-rule="evenodd" clip-rule="evenodd" d="M20 1.66667C9.8748 1.66667 1.66669 9.87478 1.66669 20C1.66669 30.1252 9.8748 38.3333 20 38.3333C30.1252 38.3333 38.3334 30.1252 38.3334 20C38.3334 9.87478 30.1252 1.66667 20 1.66667ZM5.00002 20C5.00002 11.7157 11.7157 5 20 5C28.2843 5 35 11.7157 35 20C35 28.2843 28.2843 35 20 35C11.7157 35 5.00002 28.2843 5.00002 20Z" fill="#84A98C"/>
</svg>
