<svg width="34" height="34" viewBox="0 0 34 34" fill="none" xmlns="http://www.w3.org/2000/svg">
<path fill-rule="evenodd" clip-rule="evenodd" d="M14.8937 7.59691C12.3162 5.0194 8.13721 5.0194 5.5597 7.59691C2.9822 10.1744 2.9822 14.3534 5.55971 16.9309L6.66429 18.0355C6.68234 18.0535 6.69986 18.072 6.71683 18.0909L17 28.3741L27.2827 18.0914C27.2998 18.0724 27.3174 18.0537 27.3357 18.0355L28.4403 16.9309C31.0178 14.3534 31.0178 10.1744 28.4403 7.59691C25.8628 5.0194 21.6838 5.0194 19.1063 7.59691L18.0017 8.70149C17.4485 9.25473 16.5515 9.25473 15.9983 8.70149L14.8937 7.59691ZM29.3936 19.9845C29.3766 20.0035 29.3589 20.0221 29.3406 20.0404L18.0032 31.3778C17.7374 31.6436 17.377 31.7929 17.0011 31.7928C17.0007 31.7928 17.0015 31.7928 17.0011 31.7928C17.0007 31.7928 16.9992 31.7928 16.9989 31.7928C16.623 31.7929 16.2626 31.6436 15.9968 31.3778L4.65936 20.0404C4.64109 20.0221 4.62343 20.0035 4.60636 19.9845L3.55624 18.9344C-0.127752 15.2504 -0.127757 9.27743 3.55623 5.59344C7.24023 1.90945 13.2132 1.90945 16.8971 5.59344L17 5.69629L17.1028 5.59344C20.7868 1.90945 26.7598 1.90945 30.4438 5.59344C34.1278 9.27743 34.1277 15.2504 30.4438 18.9344L29.3936 19.9845Z" fill="#253137"/>
</svg>
