<svg width="40" height="42" viewBox="0 0 40 42" fill="none" xmlns="http://www.w3.org/2000/svg">
<rect x="1" y="1" width="38" height="40" rx="14" stroke="#253137" stroke-width="2"/>
<path d="M11.6667 16C11.6667 15.5398 12.0398 15.1667 12.5 15.1667H27.5C27.9603 15.1667 28.3334 15.5398 28.3334 16C28.3334 16.4603 27.9603 16.8334 27.5 16.8334H12.5C12.0398 16.8334 11.6667 16.4603 11.6667 16Z" fill="#253137"/>
<path d="M11.6667 21C11.6667 20.5398 12.0398 20.1667 12.5 20.1667H27.5C27.9603 20.1667 28.3334 20.5398 28.3334 21C28.3334 21.4603 27.9603 21.8334 27.5 21.8334H12.5C12.0398 21.8334 11.6667 21.4603 11.6667 21Z" fill="#253137"/>
<path d="M12.5 25.1667C12.0398 25.1667 11.6667 25.5398 11.6667 26C11.6667 26.4603 12.0398 26.8334 12.5 26.8334H27.5C27.9603 26.8334 28.3334 26.4603 28.3334 26C28.3334 25.5398 27.9603 25.1667 27.5 25.1667H12.5Z" fill="#253137"/>
</svg>
