<svg width="40" height="40" viewBox="0 0 40 40" fill="none" xmlns="http://www.w3.org/2000/svg">
<path fill-rule="evenodd" clip-rule="evenodd" d="M9.99998 3.33333C8.23187 3.33333 6.53618 4.03571 5.28593 5.28595C4.03569 6.5362 3.33331 8.23189 3.33331 10C3.33331 11.7681 4.03569 13.4638 5.28593 14.714C6.53618 15.9643 8.23187 16.6667 9.99998 16.6667H13.3333V23.3333H9.99998C8.23187 23.3333 6.53618 24.0357 5.28593 25.286C4.03569 26.5362 3.33331 28.2319 3.33331 30C3.33331 31.7681 4.03569 33.4638 5.28593 34.714C6.53618 35.9643 8.23187 36.6667 9.99998 36.6667C11.7681 36.6667 13.4638 35.9643 14.714 34.714C15.9643 33.4638 16.6666 31.7681 16.6666 30V26.6667H23.3333V30C23.3333 31.7681 24.0357 33.4638 25.2859 34.714C26.5362 35.9643 28.2319 36.6667 30 36.6667C31.7681 36.6667 33.4638 35.9643 34.714 34.714C35.9643 33.4638 36.6666 31.7681 36.6666 30C36.6666 28.2319 35.9643 26.5362 34.714 25.286C33.4638 24.0357 31.7681 23.3333 30 23.3333H26.6666V16.6667H30C31.7681 16.6667 33.4638 15.9643 34.714 14.714C35.9643 13.4638 36.6666 11.7681 36.6666 10C36.6666 8.23189 35.9643 6.5362 34.714 5.28595C33.4638 4.03571 31.7681 3.33333 30 3.33333C28.2319 3.33333 26.5362 4.03571 25.2859 5.28595C24.0357 6.5362 23.3333 8.23189 23.3333 10V13.3333H16.6666V10C16.6666 8.23189 15.9643 6.5362 14.714 5.28595C13.4638 4.03571 11.7681 3.33333 9.99998 3.33333ZM13.3333 10V13.3333H9.99998C9.11592 13.3333 8.26808 12.9821 7.64296 12.357C7.01784 11.7319 6.66665 10.8841 6.66665 10C6.66665 9.11594 7.01784 8.2681 7.64296 7.64298C8.26808 7.01786 9.11593 6.66667 9.99998 6.66667C10.884 6.66667 11.7319 7.01786 12.357 7.64298C12.9821 8.2681 13.3333 9.11594 13.3333 10ZM16.6666 23.3333V16.6667H23.3333V23.3333H16.6666ZM9.99998 26.6667H13.3333V30C13.3333 30.8841 12.9821 31.7319 12.357 32.357C11.7319 32.9821 10.884 33.3333 9.99998 33.3333C9.11592 33.3333 8.26808 32.9821 7.64296 32.357C7.01784 31.7319 6.66665 30.8841 6.66665 30C6.66665 29.1159 7.01784 28.2681 7.64296 27.643C8.26808 27.0179 9.11592 26.6667 9.99998 26.6667ZM26.6666 30V26.6667H30C30.884 26.6667 31.7319 27.0179 32.357 27.643C32.9821 28.2681 33.3333 29.1159 33.3333 30C33.3333 30.8841 32.9821 31.7319 32.357 32.357C31.7319 32.9821 30.884 33.3333 30 33.3333C29.1159 33.3333 28.2681 32.9821 27.643 32.357C27.0178 31.7319 26.6666 30.8841 26.6666 30ZM30 13.3333H26.6666V10C26.6666 9.11594 27.0178 8.2681 27.643 7.64298C28.2681 7.01786 29.1159 6.66667 30 6.66667C30.884 6.66667 31.7319 7.01786 32.357 7.64298C32.9821 8.2681 33.3333 9.11594 33.3333 10C33.3333 10.8841 32.9821 11.7319 32.357 12.357C31.7319 12.9821 30.884 13.3333 30 13.3333Z" fill="#84A98C"/>
</svg>
