<svg width="22" height="22" viewBox="0 0 22 22" fill="none" xmlns="http://www.w3.org/2000/svg">
<path fill-rule="evenodd" clip-rule="evenodd" d="M3.75 10.0833C3.75 6.58553 6.58553 3.75 10.0833 3.75C13.5811 3.75 16.4167 6.58553 16.4167 10.0833C16.4167 11.7873 15.7437 13.3341 14.6491 14.4725C14.6166 14.4978 14.5852 14.5255 14.5553 14.5554C14.5254 14.5853 14.4978 14.6166 14.4724 14.6492C13.3341 15.7438 11.7873 16.4167 10.0833 16.4167C6.58553 16.4167 3.75 13.5811 3.75 10.0833ZM15.2264 16.6407C13.81 17.7532 12.0241 18.4167 10.0833 18.4167C5.48096 18.4167 1.75 14.6857 1.75 10.0833C1.75 5.48096 5.48096 1.75 10.0833 1.75C14.6857 1.75 18.4167 5.48096 18.4167 10.0833C18.4167 12.0242 17.7532 13.81 16.6406 15.2265L19.957 18.5429C20.3475 18.9334 20.3475 19.5666 19.957 19.9571C19.5665 20.3476 18.9333 20.3476 18.5428 19.9571L15.2264 16.6407Z" fill="#354F52"/>
</svg>
