<svg width="34" height="34" viewBox="0 0 34 34" fill="none" xmlns="http://www.w3.org/2000/svg">
<g clip-path="url(#clip0_109496_57)">
<path fill-rule="evenodd" clip-rule="evenodd" d="M1.41667 0C0.634263 0 0 0.634263 0 1.41667C0 2.19907 0.634263 2.83333 1.41667 2.83333H5.92211L7.10027 8.71969C7.10654 8.76001 7.11452 8.79976 7.12412 8.83887L9.49048 20.6618C9.68499 21.6397 10.2174 22.5192 10.994 23.1445C11.7671 23.7668 12.7335 24.0989 13.7256 24.0833H27.4711C28.4631 24.0989 29.4295 23.7668 30.2027 23.1445C30.9796 22.519 31.5119 21.6402 31.7062 20.6618L31.7083 20.6512L33.9749 8.76538C34.054 8.35065 33.944 7.92226 33.6749 7.59695C33.4057 7.27165 33.0055 7.08333 32.5833 7.08333H9.66228L8.47245 1.13864C8.33993 0.476546 7.75855 0 7.08333 0H1.41667ZM10.2294 9.91667H30.871L28.9262 20.1144C28.8607 20.4387 28.6838 20.7299 28.426 20.9374C28.167 21.1459 27.8429 21.2566 27.5105 21.2503L27.4833 21.25H13.7133L13.6862 21.2503C13.3538 21.2566 13.0297 21.1459 12.7707 20.9374C12.5117 20.7289 12.3343 20.436 12.2695 20.1098L10.2294 9.91667Z" fill="#253137"/>
<path d="M9.91667 29.75C9.91667 28.1852 11.1852 26.9167 12.75 26.9167C14.3148 26.9167 15.5833 28.1852 15.5833 29.75C15.5833 31.3148 14.3148 32.5833 12.75 32.5833C11.1852 32.5833 9.91667 31.3148 9.91667 29.75Z" fill="#253137"/>
<path d="M25.5 29.75C25.5 28.1852 26.7685 26.9167 28.3333 26.9167C29.8981 26.9167 31.1667 28.1852 31.1667 29.75C31.1667 31.3148 29.8981 32.5833 28.3333 32.5833C26.7685 32.5833 25.5 31.3148 25.5 29.75Z" fill="#253137"/>
</g>
<defs>
<clipPath id="clip0_109496_57">
<rect width="34" height="34" fill="white"/>
</clipPath>
</defs>
</svg>
