<svg width="40" height="40" viewBox="0 0 40 40" fill="none" xmlns="http://www.w3.org/2000/svg">
<g clip-path="url(#clip0_15_84)">
<path d="M20 0C20.9205 0 21.6667 0.746192 21.6667 1.66667V5C21.6667 5.92047 20.9205 6.66667 20 6.66667C19.0795 6.66667 18.3333 5.92047 18.3333 5V1.66667C18.3333 0.746192 19.0795 0 20 0Z" fill="#84A98C"/>
<path fill-rule="evenodd" clip-rule="evenodd" d="M10 20C10 14.4772 14.4772 10 20 10C25.5228 10 30 14.4772 30 20C30 25.5228 25.5228 30 20 30C14.4772 30 10 25.5228 10 20ZM20 13.3333C16.3181 13.3333 13.3333 16.3181 13.3333 20C13.3333 23.6819 16.3181 26.6667 20 26.6667C23.6819 26.6667 26.6667 23.6819 26.6667 20C26.6667 16.3181 23.6819 13.3333 20 13.3333Z" fill="#84A98C"/>
<path d="M21.6667 35C21.6667 34.0795 20.9205 33.3333 20 33.3333C19.0795 33.3333 18.3333 34.0795 18.3333 35V38.3333C18.3333 39.2538 19.0795 40 20 40C20.9205 40 21.6667 39.2538 21.6667 38.3333V35Z" fill="#84A98C"/>
<path d="M5.85477 5.85477C6.50565 5.2039 7.56092 5.2039 8.21179 5.85477L10.5785 8.22144C11.2293 8.87231 11.2293 9.92759 10.5785 10.5785C9.92759 11.2293 8.87231 11.2293 8.22144 10.5785L5.85477 8.21179C5.2039 7.56092 5.2039 6.50565 5.85477 5.85477Z" fill="#84A98C"/>
<path d="M31.7787 29.4215C31.1278 28.7706 30.0725 28.7706 29.4217 29.4215C28.7708 30.0723 28.7708 31.1276 29.4217 31.7785L31.7883 34.1452C32.4392 34.796 33.4945 34.796 34.1454 34.1452C34.7962 33.4943 34.7962 32.439 34.1454 31.7881L31.7787 29.4215Z" fill="#84A98C"/>
<path d="M0 20C0 19.0795 0.746192 18.3333 1.66667 18.3333H5C5.92047 18.3333 6.66667 19.0795 6.66667 20C6.66667 20.9205 5.92047 21.6667 5 21.6667H1.66667C0.746192 21.6667 0 20.9205 0 20Z" fill="#84A98C"/>
<path d="M35 18.3333C34.0795 18.3333 33.3333 19.0795 33.3333 20C33.3333 20.9205 34.0795 21.6667 35 21.6667H38.3333C39.2538 21.6667 40 20.9205 40 20C40 19.0795 39.2538 18.3333 38.3333 18.3333H35Z" fill="#84A98C"/>
<path d="M10.5785 29.4215C11.2293 30.0723 11.2293 31.1276 10.5785 31.7785L8.21179 34.1452C7.56092 34.796 6.50565 34.796 5.85477 34.1452C5.2039 33.4943 5.2039 32.439 5.85477 31.7881L8.22144 29.4215C8.87231 28.7706 9.92759 28.7706 10.5785 29.4215Z" fill="#84A98C"/>
<path d="M34.1454 8.21179C34.7962 7.56092 34.7962 6.50565 34.1454 5.85477C33.4945 5.2039 32.4392 5.2039 31.7883 5.85477L29.4217 8.22144C28.7708 8.87231 28.7708 9.92759 29.4217 10.5785C30.0725 11.2293 31.1278 11.2293 31.7787 10.5785L34.1454 8.21179Z" fill="#84A98C"/>
</g>
<defs>
<clipPath id="clip0_15_84">
<rect width="40" height="40" fill="white"/>
</clipPath>
</defs>
</svg>
