<svg width="34" height="34" viewBox="0 0 34 34" fill="none" xmlns="http://www.w3.org/2000/svg">
<path fill-rule="evenodd" clip-rule="evenodd" d="M17 2.83331C13.088 2.83331 9.91667 6.00463 9.91667 9.91665C9.91667 13.8287 13.088 17 17 17C20.912 17 24.0833 13.8287 24.0833 9.91665C24.0833 6.00463 20.912 2.83331 17 2.83331ZM12.75 9.91665C12.75 7.56944 14.6528 5.66665 17 5.66665C19.3472 5.66665 21.25 7.56944 21.25 9.91665C21.25 12.2639 19.3472 14.1666 17 14.1666C14.6528 14.1666 12.75 12.2639 12.75 9.91665Z" fill="#253137"/>
<path d="M11.3333 19.8333C9.45472 19.8333 7.65304 20.5796 6.32466 21.908C4.99628 23.2364 4.25 25.038 4.25 26.9166V29.75C4.25 30.5324 4.88426 31.1666 5.66667 31.1666C6.44907 31.1666 7.08333 30.5324 7.08333 29.75V26.9166C7.08333 25.7895 7.5311 24.7085 8.32813 23.9114C9.12516 23.1144 10.2062 22.6666 11.3333 22.6666H22.6667C23.7938 22.6666 24.8748 23.1144 25.6719 23.9114C26.4689 24.7085 26.9167 25.7895 26.9167 26.9166V29.75C26.9167 30.5324 27.5509 31.1666 28.3333 31.1666C29.1157 31.1666 29.75 30.5324 29.75 29.75V26.9166C29.75 25.038 29.0037 23.2364 27.6753 21.908C26.347 20.5796 24.5453 19.8333 22.6667 19.8333H11.3333Z" fill="#253137"/>
</svg>
