<svg width="136" height="125" viewBox="0 0 136 125" fill="none" xmlns="http://www.w3.org/2000/svg">
<rect width="136" height="125" rx="20" fill="#354F52"/>
<path d="M41.491 104.985C41.491 104.764 41.7288 104.585 42.0222 104.585H92.491C92.7844 104.585 93.0222 104.764 93.0222 104.985C93.0222 105.206 92.7844 105.385 92.491 105.385H42.0222C41.7288 105.385 41.491 105.206 41.491 104.985Z" fill="#CAD2C5"/>
<path fill-rule="evenodd" clip-rule="evenodd" d="M49.4597 65.3973C49.4597 64.7348 50.1733 64.1977 51.0535 64.1977C51.9337 64.1977 52.6472 64.7348 52.6472 65.3973C52.6472 66.0599 51.9337 66.5969 51.0535 66.5969C50.1733 66.5969 49.4597 66.0599 49.4597 65.3973ZM51.0535 64.9974C50.7601 64.9974 50.5222 65.1765 50.5222 65.3973C50.5222 65.6182 50.7601 65.7972 51.0535 65.7972C51.3469 65.7972 51.5847 65.6182 51.5847 65.3973C51.5847 65.1765 51.3469 64.9974 51.0535 64.9974Z" fill="#CAD2C5"/>
<path fill-rule="evenodd" clip-rule="evenodd" d="M51.0535 71.3954C50.1733 71.3954 49.4597 71.9325 49.4597 72.595C49.4597 73.2576 50.1733 73.7946 51.0535 73.7946C51.9337 73.7946 52.6472 73.2576 52.6472 72.595C52.6472 71.9325 51.9337 71.3954 51.0535 71.3954ZM50.5222 72.595C50.5222 72.3742 50.7601 72.1952 51.0535 72.1952C51.3469 72.1952 51.5847 72.3742 51.5847 72.595C51.5847 72.8159 51.3469 72.9949 51.0535 72.9949C50.7601 72.9949 50.5222 72.8159 50.5222 72.595Z" fill="#CAD2C5"/>
<path fill-rule="evenodd" clip-rule="evenodd" d="M61.1472 65.3973C61.1472 64.7348 61.8608 64.1977 62.741 64.1977C63.6212 64.1977 64.3347 64.7348 64.3347 65.3973C64.3347 66.0599 63.6212 66.5969 62.741 66.5969C61.8608 66.5969 61.1472 66.0599 61.1472 65.3973ZM62.741 64.9974C62.4476 64.9974 62.2097 65.1765 62.2097 65.3973C62.2097 65.6182 62.4476 65.7972 62.741 65.7972C63.0344 65.7972 63.2722 65.6182 63.2722 65.3973C63.2722 65.1765 63.0344 64.9974 62.741 64.9974Z" fill="#CAD2C5"/>
<path fill-rule="evenodd" clip-rule="evenodd" d="M62.741 72.1952C61.8608 72.1952 61.1472 72.7322 61.1472 73.3948C61.1472 74.0573 61.8608 74.5944 62.741 74.5944C63.6212 74.5944 64.3347 74.0573 64.3347 73.3948C64.3347 72.7322 63.6212 72.1952 62.741 72.1952ZM62.2097 73.3948C62.2097 73.1739 62.4476 72.9949 62.741 72.9949C63.0344 72.9949 63.2722 73.1739 63.2722 73.3948C63.2722 73.6156 63.0344 73.7946 62.741 73.7946C62.4476 73.7946 62.2097 73.6156 62.2097 73.3948Z" fill="#CAD2C5"/>
<path fill-rule="evenodd" clip-rule="evenodd" d="M71.7722 65.3973C71.7722 64.7348 72.4858 64.1977 73.366 64.1977C74.2462 64.1977 74.9597 64.7348 74.9597 65.3973C74.9597 66.0599 74.2462 66.5969 73.366 66.5969C72.4858 66.5969 71.7722 66.0599 71.7722 65.3973ZM73.366 64.9974C73.0726 64.9974 72.8347 65.1765 72.8347 65.3973C72.8347 65.6182 73.0726 65.7972 73.366 65.7972C73.6594 65.7972 73.8972 65.6182 73.8972 65.3973C73.8972 65.1765 73.6594 64.9974 73.366 64.9974Z" fill="#CAD2C5"/>
<path fill-rule="evenodd" clip-rule="evenodd" d="M73.366 72.1952C72.4858 72.1952 71.7722 72.7322 71.7722 73.3948C71.7722 74.0573 72.4858 74.5944 73.366 74.5944C74.2462 74.5944 74.9597 74.0573 74.9597 73.3948C74.9597 72.7322 74.2462 72.1952 73.366 72.1952ZM72.8347 73.3948C72.8347 73.1739 73.0726 72.9949 73.366 72.9949C73.6594 72.9949 73.8972 73.1739 73.8972 73.3948C73.8972 73.6156 73.6594 73.7946 73.366 73.7946C73.0726 73.7946 72.8347 73.6156 72.8347 73.3948Z" fill="#CAD2C5"/>
<path fill-rule="evenodd" clip-rule="evenodd" d="M83.4597 65.3973C83.4597 64.7348 84.1733 64.1977 85.0535 64.1977C85.9337 64.1977 86.6472 64.7348 86.6472 65.3973C86.6472 66.0599 85.9337 66.5969 85.0535 66.5969C84.1733 66.5969 83.4597 66.0599 83.4597 65.3973ZM85.0535 64.9974C84.7601 64.9974 84.5222 65.1765 84.5222 65.3973C84.5222 65.6182 84.7601 65.7972 85.0535 65.7972C85.3469 65.7972 85.5847 65.6182 85.5847 65.3973C85.5847 65.1765 85.3469 64.9974 85.0535 64.9974Z" fill="#CAD2C5"/>
<path fill-rule="evenodd" clip-rule="evenodd" d="M85.0535 71.3954C84.1733 71.3954 83.4597 71.9325 83.4597 72.595C83.4597 73.2576 84.1733 73.7946 85.0535 73.7946C85.9337 73.7946 86.6472 73.2576 86.6472 72.595C86.6472 71.9325 85.9337 71.3954 85.0535 71.3954ZM84.5222 72.595C84.5222 72.3742 84.7601 72.1952 85.0535 72.1952C85.3469 72.1952 85.5847 72.3742 85.5847 72.595C85.5847 72.8159 85.3469 72.9949 85.0535 72.9949C84.7601 72.9949 84.5222 72.8159 84.5222 72.595Z" fill="#CAD2C5"/>
<path fill-rule="evenodd" clip-rule="evenodd" d="M35.9823 57C32.2521 57 29.196 59.2296 29.0795 62.036L28.7503 69.9634C27.0225 70.0759 25.4114 70.5134 24.2176 71.0525C22.8438 71.673 21.385 72.4384 20.5974 74.3245C19.8283 76.1666 19.7134 79.0427 20.7794 83.8572C22.9039 93.4516 25.0448 99.9611 31.5381 105.256C34.1242 107.362 37.8782 108.745 41.9422 108.955L38.8406 124.519C38.8177 124.634 38.8625 124.751 38.9634 124.839C39.0644 124.928 39.2113 124.978 39.366 124.978H43.0847C43.3193 124.978 43.5262 124.862 43.5936 124.693L49.855 108.983H88.377L94.6384 124.693C94.7058 124.862 94.9126 124.978 95.1472 124.978H98.866C99.0206 124.978 99.1676 124.928 99.2685 124.839C99.3694 124.751 99.4143 124.634 99.3913 124.519L96.2473 108.742C99.496 108.243 102.431 106.997 104.569 105.256C111.065 99.9585 112.964 93.4425 115.087 83.8572C116.153 79.0427 116.038 76.1666 115.269 74.3245C114.481 72.4384 113.022 71.673 111.648 71.0525C111.092 70.8014 110.446 70.5723 109.739 70.3879C109.539 70.3241 109.334 70.2682 109.128 70.2163C109.054 70.1978 108.979 70.1922 108.906 70.1977C108.409 70.0998 107.889 70.0254 107.357 69.9813L107.027 62.036C106.911 59.2296 103.855 57 100.125 57H35.9823ZM48.7457 108.983H43.011L39.9829 124.179H42.6895L48.7457 108.983ZM93.0813 108.184C97.2605 108.184 101.175 106.842 103.788 104.713C110.041 99.6143 111.911 93.3343 114.038 83.7257C115.097 78.9433 114.947 76.2212 114.255 74.5643C113.717 73.2767 112.846 72.613 111.863 72.1029C112.054 72.5609 112.147 73.1163 112.147 73.7946C112.147 74.5399 111.803 76.2541 111.241 78.4561C110.675 80.6753 109.876 83.4311 108.944 86.2861C107.087 91.9781 104.683 98.1243 102.522 101.174C102.384 101.369 102.062 101.443 101.803 101.339C101.545 101.235 101.447 100.993 101.585 100.798C103.674 97.8496 106.051 91.7996 107.913 86.0953C108.84 83.2521 109.635 80.5097 110.198 78.3052C110.765 76.0837 111.085 74.4489 111.085 73.7946C111.085 72.7147 110.827 72.1154 110.459 71.7442C110.191 71.4729 109.831 71.2889 109.353 71.1337C108.237 70.8463 106.957 70.6821 105.67 70.7505C103.656 70.8574 101.622 71.5315 100.13 73.2167C99.6623 73.7442 99.1871 74.5729 98.7254 75.6009C98.2669 76.6218 97.8333 77.8124 97.4389 79.0455C96.6502 81.5115 96.0248 84.1267 95.6722 85.8516C95.6603 85.9102 95.632 85.9638 95.5914 86.0102L99.167 87.8605C99.2105 87.883 99.2481 87.9095 99.2797 87.9389C100.627 88.5755 101.522 89.7036 101.522 90.9892V95.7876C101.522 97.7752 99.3816 99.3865 96.741 99.3865H94.008C95.6064 100.523 97.6476 102.648 98.3274 105.719C98.3757 105.937 98.1801 106.143 97.8907 106.179C97.6013 106.215 97.3276 106.068 97.2794 105.85C96.4818 102.248 93.6872 100.073 92.3335 99.3865H41.6484C40.2948 100.073 37.5002 102.248 36.7026 105.85C36.6544 106.068 36.3806 106.215 36.0912 106.179C35.8018 106.143 35.6063 105.937 35.6545 105.719C36.3344 102.648 38.3756 100.523 39.9739 99.3865H39.366C36.7254 99.3865 34.5847 97.7752 34.5847 95.7876V90.9892C34.5847 89.7035 35.4803 88.5754 36.8275 87.9389C36.859 87.9095 36.8966 87.883 36.9401 87.8605L40.3974 86.0714C40.0357 84.3444 39.3685 81.7275 38.5484 79.2485C38.1239 77.9651 37.6602 76.7239 37.1788 75.6648C36.6939 74.5978 36.2036 73.7442 35.7364 73.2167C34.2438 71.5315 32.2094 70.8574 30.1958 70.7505C29.2502 70.7002 28.3084 70.7755 27.4328 70.933C27.3968 70.9502 27.3575 70.9644 27.3152 70.975C26.546 71.168 26.0123 71.3755 25.6475 71.7442C25.2803 72.1154 25.0222 72.7147 25.0222 73.7946C25.0222 74.4489 25.3422 76.0837 25.9092 78.3052C26.4717 80.5097 27.2666 83.2521 28.1944 86.0953C30.0558 91.7996 32.4333 97.8496 34.5222 100.798C34.6603 100.993 34.5624 101.235 34.3035 101.339C34.0446 101.443 33.7228 101.369 33.5847 101.174C31.4237 98.1243 29.0199 91.9781 27.1626 86.2861C26.231 83.4311 25.4321 80.6753 24.8658 78.4561C24.3038 76.2541 23.9597 74.5399 23.9597 73.7946C23.9597 73.0377 24.0762 72.4339 24.3136 71.9476C23.2059 72.4811 22.2048 73.1423 21.611 74.5643C20.9192 76.2212 20.7685 78.9433 21.8275 83.7257C23.953 93.3252 26.0622 99.6116 32.3189 104.713C34.932 106.842 38.8464 108.184 43.0255 108.184H93.0813ZM95.5425 124.179L89.4862 108.983H95.221L98.2491 124.179H95.5425ZM38.0612 57.7997H35.9823C32.826 57.7997 30.24 59.6863 30.1414 62.061L29.8144 69.9369C29.9662 69.9394 30.1183 69.9446 30.2706 69.9527C31.7515 70.0314 33.2517 70.3835 34.5847 71.1332V62.0485C34.5847 60.2807 35.6815 59.0018 37.2363 58.1787C37.4995 58.0394 37.7755 57.9132 38.0612 57.7997ZM35.6472 71.8481V62.0485C35.6472 60.5672 36.546 59.5218 37.8475 58.8329C39.1678 58.134 40.9132 57.7997 42.5504 57.7997H93.5535C95.1906 57.7997 96.936 58.134 98.2563 58.8329C99.5578 59.5218 100.457 60.5672 100.457 62.0485L100.46 71.6633C100.028 71.9813 99.6206 72.3495 99.2455 72.7731C98.6987 73.3905 98.1879 74.3004 97.7188 75.3448C97.2466 76.3963 96.8046 77.6119 96.406 78.8583C95.6385 81.2577 95.0255 83.7913 94.6634 85.53L91.2109 83.7434C90.7681 83.5142 90.2434 83.3916 89.706 83.3916H46.401C45.8637 83.3916 45.339 83.5142 44.8962 83.7434L41.3662 85.5701C40.9865 83.8323 40.35 81.3847 39.5795 79.0552C39.1507 77.7591 38.6787 76.4942 38.1841 75.4059C37.6931 74.3256 37.1673 73.3905 36.6205 72.7731C36.3159 72.4292 35.9901 72.1218 35.6472 71.8481ZM96.3829 87.3903L90.6089 84.4024C90.3433 84.2649 90.0284 84.1913 89.706 84.1913H46.401C46.0786 84.1913 45.7638 84.2649 45.4981 84.4024L39.7242 87.3903H96.3829ZM96.741 98.5867C98.7948 98.5867 100.46 97.3335 100.46 95.7876V90.9892C100.46 89.4433 98.7948 88.1901 96.741 88.1901H39.366C37.3122 88.1901 35.6472 89.4433 35.6472 90.9892V95.7876C35.6472 97.3335 37.3122 98.5867 39.366 98.5867H96.741ZM101.522 71.003C102.793 70.3424 104.203 70.0267 105.595 69.9527C105.828 69.9403 106.061 69.9347 106.292 69.9353L105.965 62.061C105.867 59.6863 103.281 57.7997 100.125 57.7997H98.0426C98.3284 57.9132 98.6043 58.0394 98.8675 58.1787C100.422 59.0018 101.519 60.2808 101.519 62.0485L101.522 71.003Z" fill="#CAD2C5"/>
<path d="M33.824 39.62C31.64 39.62 29.732 39.236 28.1 38.468C26.492 37.724 25.244 36.632 24.356 35.192C23.468 33.728 23.024 31.976 23.024 29.936C23.024 28.016 23.384 26.252 24.104 24.644C24.848 23.036 25.916 21.548 27.308 20.18C29.42 18.14 31.88 16.568 34.688 15.464C37.52 14.36 40.436 13.808 43.436 13.808C44.924 13.808 46.232 14.072 47.36 14.6C48.488 15.104 49.376 15.788 50.024 16.652C50.672 17.516 50.996 18.464 50.996 19.496C50.996 20.168 50.84 20.792 50.528 21.368C50.216 21.92 49.868 22.364 49.484 22.7C49.1 23.036 48.788 23.204 48.548 23.204C48.356 23.204 48.164 23.12 47.972 22.952C47.78 22.76 47.684 22.604 47.684 22.484C47.684 22.34 47.852 22.136 48.188 21.872C48.524 21.608 48.848 21.26 49.16 20.828C49.496 20.372 49.664 19.82 49.664 19.172C49.664 18.308 49.364 17.552 48.764 16.904C48.188 16.232 47.372 15.716 46.316 15.356C45.284 14.972 44.096 14.78 42.752 14.78C40.088 14.78 37.496 15.344 34.976 16.472C32.456 17.576 30.248 19.064 28.352 20.936C27.032 22.256 26.036 23.648 25.364 25.112C24.692 26.576 24.356 28.268 24.356 30.188C24.356 32.036 24.788 33.584 25.652 34.832C26.54 36.056 27.728 36.98 29.216 37.604C30.704 38.204 32.372 38.504 34.22 38.504C36.332 38.504 38.576 38.168 40.952 37.496C42.344 37.112 43.52 36.68 44.48 36.2C45.44 35.696 46.16 35.228 46.64 34.796C47.096 34.388 47.432 34.088 47.648 33.896C47.864 33.704 48.044 33.608 48.188 33.608C48.356 33.608 48.44 33.716 48.44 33.932C48.44 34.172 48.296 34.472 48.008 34.832C47.744 35.192 47.444 35.504 47.108 35.768C46.268 36.416 45.2 37.004 43.904 37.532C42.632 38.036 41.36 38.456 40.088 38.792C38.96 39.08 37.88 39.284 36.848 39.404C35.816 39.548 34.808 39.62 33.824 39.62ZM53.5877 37.82C51.6437 37.82 50.6717 36.728 50.6717 34.544C50.6717 33.536 50.9117 32.48 51.3917 31.376C51.8717 30.272 52.5077 29.252 53.2997 28.316C54.0917 27.356 54.9677 26.576 55.9277 25.976C56.9117 25.376 57.9077 25.076 58.9157 25.076C59.8037 25.076 60.4517 25.412 60.8597 26.084C61.2677 26.756 61.4717 27.5 61.4717 28.316C61.4717 29.396 61.2557 30.5 60.8237 31.628C60.3917 32.732 59.8037 33.752 59.0597 34.688C58.3157 35.624 57.4757 36.38 56.5397 36.956C55.6037 37.532 54.6197 37.82 53.5877 37.82ZM53.5517 36.668C53.6957 36.668 53.7797 36.656 53.8037 36.632C54.7397 36.512 55.6037 36.176 56.3957 35.624C57.1877 35.072 57.8717 34.388 58.4477 33.572C59.0477 32.732 59.5037 31.832 59.8157 30.872C60.1277 29.912 60.2837 28.964 60.2837 28.028C60.2837 27.476 60.1277 27.044 59.8157 26.732C59.5037 26.42 59.1077 26.264 58.6277 26.264C57.9317 26.264 57.1877 26.552 56.3957 27.128C55.6277 27.704 54.8957 28.436 54.1997 29.324C53.5277 30.212 52.9757 31.148 52.5437 32.132C52.1117 33.092 51.8957 33.956 51.8957 34.724C51.8957 36.02 52.4477 36.668 53.5517 36.668ZM61.436 39.224C61.028 39.224 60.824 39.032 60.824 38.648C60.824 38.624 60.968 38.324 61.256 37.748C61.544 37.172 61.952 36.32 62.48 35.192L64.316 31.34C65.06 29.78 65.588 28.544 65.9 27.632C66.236 26.72 66.404 26.132 66.404 25.868C66.404 25.484 66.596 25.292 66.98 25.292C67.364 25.292 67.556 25.484 67.556 25.868C67.556 26.18 67.448 26.672 67.232 27.344C67.04 27.992 66.716 28.832 66.26 29.864L64.424 34.04C69.44 27.704 73.22 24.536 75.764 24.536C76.244 24.536 76.616 24.74 76.88 25.148C77.144 25.532 77.276 25.964 77.276 26.444C77.276 27.596 76.448 29.6 74.792 32.456C76.064 31.16 77.348 29.864 78.644 28.568C79.964 27.248 81.284 25.952 82.604 24.68C82.94 24.368 83.216 24.212 83.432 24.212C83.72 24.212 83.96 24.356 84.152 24.644C84.344 24.908 84.44 25.196 84.44 25.508C84.44 25.748 84.332 26.048 84.116 26.408C83.804 26.936 83.516 27.572 83.252 28.316C82.988 29.036 82.688 29.852 82.352 30.764C81.968 31.796 81.692 32.696 81.524 33.464C81.356 34.232 81.272 34.856 81.272 35.336C81.272 35.936 81.416 36.38 81.704 36.668C81.992 36.932 82.28 37.064 82.568 37.064C83.072 37.064 83.624 36.932 84.224 36.668C84.824 36.404 85.316 36.14 85.7 35.876C86.468 35.372 87.272 34.748 88.112 34.004C88.952 33.236 89.756 32.468 90.524 31.7C90.62 31.604 90.764 31.556 90.956 31.556C91.316 31.556 91.496 31.7 91.496 31.988C91.496 32.252 91.328 32.552 90.992 32.888C90.032 33.848 89.168 34.676 88.4 35.372C87.632 36.044 86.9 36.596 86.204 37.028C85.748 37.292 85.196 37.568 84.548 37.856C83.9 38.144 83.204 38.288 82.46 38.288C81.764 38.288 81.176 38.072 80.696 37.64C80.24 37.208 80.012 36.284 80.012 34.868C80.012 34.316 80.108 33.668 80.3 32.924C80.492 32.156 80.78 31.304 81.164 30.368L83.072 25.832L77.924 31.016C77.324 31.616 76.832 32.12 76.448 32.528C76.064 32.936 75.752 33.272 75.512 33.536C75.056 34.016 74.648 34.484 74.288 34.94C73.952 35.396 73.664 35.792 73.424 36.128C73.256 36.392 73.064 36.524 72.848 36.524C72.44 36.524 72.236 36.356 72.236 36.02C72.236 35.276 72.908 33.56 74.252 30.872C75.596 28.184 76.268 26.576 76.268 26.048C76.268 25.808 76.004 25.688 75.476 25.688C73.34 25.688 69.536 29.18 64.064 36.164C63.608 36.812 62.852 37.784 61.796 39.08C61.724 39.176 61.604 39.224 61.436 39.224ZM87.0756 49.88C86.3076 49.88 85.7676 49.616 85.4556 49.088C85.1196 48.584 84.9516 47.9 84.9516 47.036C84.9516 45.068 85.8756 42.032 87.7236 37.928C87.6276 37.832 87.5796 37.712 87.5796 37.568C87.5796 37.328 87.7956 37.088 88.2276 36.848C89.4996 34.28 90.6756 32.012 91.7556 30.044C92.8596 28.052 93.8556 26.36 94.7436 24.968C97.7196 20.408 100.396 17.252 102.772 15.5C103.084 15.26 103.384 15.068 103.672 14.924C103.96 14.78 104.248 14.708 104.536 14.708C104.92 14.708 105.112 14.864 105.112 15.176C105.112 15.344 105.04 15.524 104.896 15.716C104.776 15.884 104.56 16.16 104.248 16.544C103.888 16.952 103.468 17.432 102.988 17.984C102.508 18.512 102.004 19.064 101.476 19.64C100.972 20.216 100.504 20.744 100.072 21.224C99.6396 21.68 99.2916 22.04 99.0276 22.304L95.7156 25.724L94.5636 27.56C94.2516 28.04 93.8676 28.7 93.4116 29.54C92.9796 30.356 92.4636 31.328 91.8636 32.456C91.6236 32.912 91.3116 33.5 90.9276 34.22C90.5676 34.94 90.1476 35.792 89.6676 36.776C89.8596 36.8 90.0276 36.848 90.1716 36.92C90.3396 36.968 90.4956 37.028 90.6396 37.1C93.9276 36.092 97.0356 34.316 99.9636 31.772C100.132 31.652 100.276 31.592 100.396 31.592C100.804 31.592 101.008 31.772 101.008 32.132C101.008 32.228 100.972 32.324 100.9 32.42C100.852 32.516 100.792 32.612 100.72 32.708C100.36 33.092 99.8436 33.536 99.1716 34.04C98.4996 34.544 97.6596 35.084 96.6516 35.66C95.7876 36.14 94.9476 36.584 94.1316 36.992C93.3396 37.376 92.5716 37.7 91.8276 37.964C92.4996 38.78 92.8356 39.824 92.8356 41.096C92.8356 42.848 92.3196 44.672 91.2876 46.568C90.0876 48.776 88.6836 49.88 87.0756 49.88ZM86.8596 48.8C87.5556 48.8 88.2156 48.512 88.8396 47.936C89.4876 47.36 90.0396 46.616 90.4956 45.704C90.8316 45.056 91.1076 44.276 91.3236 43.364C91.5636 42.476 91.6836 41.696 91.6836 41.024C91.6836 39.68 91.2756 38.78 90.4596 38.324C90.1476 38.372 89.8596 38.408 89.5956 38.432C89.3316 38.48 89.0796 38.492 88.8396 38.468V38.504C86.8236 42.992 85.8156 46.064 85.8156 47.72C85.8156 48.08 85.9116 48.344 86.1036 48.512C86.2956 48.704 86.5476 48.8 86.8596 48.8ZM100.793 49.916C99.3287 49.916 98.5967 49.052 98.5967 47.324C98.5967 45.86 98.9087 44.444 99.5327 43.076C99.6287 42.836 99.7847 42.716 100.001 42.716C100.433 42.716 100.649 42.908 100.649 43.292C100.649 43.388 100.613 43.508 100.541 43.652C100.493 43.82 100.433 44 100.361 44.192C100.193 44.648 100.061 45.128 99.9647 45.632C99.8687 46.136 99.8207 46.664 99.8207 47.216C99.8207 47.84 99.9047 48.26 100.073 48.476C100.241 48.692 100.457 48.8 100.721 48.8C101.345 48.8 102.077 48.512 102.917 47.936C103.781 47.36 104.669 46.448 105.581 45.2C106.229 44.312 106.901 43.256 107.597 42.032C108.293 40.808 109.037 39.404 109.829 37.82C110.885 35.732 111.857 33.608 112.745 31.448C112.145 32.216 111.521 32.96 110.873 33.68C110.225 34.4 109.529 35.072 108.785 35.696C106.793 37.4 105.137 38.252 103.817 38.252C102.233 38.252 101.441 37.34 101.441 35.516C101.441 34.868 101.561 34.088 101.801 33.176C102.065 32.264 102.425 31.22 102.881 30.044C102.953 29.852 102.989 29.696 102.989 29.576C102.989 29.432 103.025 29.288 103.097 29.144C103.481 28.304 104.117 27.368 105.005 26.336C105.197 26.12 105.365 26.012 105.509 26.012C105.869 26.012 106.049 26.276 106.049 26.804C103.721 30.236 102.557 33.14 102.557 35.516C102.557 36.524 102.953 37.028 103.745 37.028C104.633 37.028 105.869 36.416 107.453 35.192C108.581 34.328 109.625 33.356 110.585 32.276C111.545 31.172 112.409 30.032 113.177 28.856C113.705 28.064 114.125 27.368 114.437 26.768C114.773 26.144 114.977 25.724 115.049 25.508C115.169 25.148 115.337 24.968 115.553 24.968C116.009 24.968 116.237 25.16 116.237 25.544C116.237 25.736 116.141 26.084 115.949 26.588C115.781 27.068 115.565 27.644 115.301 28.316C114.917 29.3 114.365 30.62 113.645 32.276C112.925 33.932 112.025 35.9 110.945 38.18C109.601 41.012 108.281 43.328 106.985 45.128C106.025 46.496 104.969 47.636 103.817 48.548C102.689 49.46 101.681 49.916 100.793 49.916Z" fill="#CAD2C5"/>
</svg>
